<?xml version="1.0" standalone="no"?>
<!DOCTYPE svg PUBLIC "-//W3C//DTD SVG 20010904//EN"
 "http://www.w3.org/TR/2001/REC-SVG-20010904/DTD/svg10.dtd">
<svg version="1.0" xmlns="http://www.w3.org/2000/svg"
 width="420.000000pt" height="420.000000pt" viewBox="0 0 420.000000 420.000000"
 preserveAspectRatio="xMidYMid meet">
<metadata>
Created by potrace 1.14, written by Peter Selinger 2001-2017
</metadata>
<g transform="translate(0.000000,420.000000) scale(0.100000,-0.100000)"
fill="#000000" stroke="none">
<path d="M2326 3677 c-21 -18 -53 -44 -70 -59 -33 -29 -155 -92 -163 -85 -5 6
-11 34 -12 62 -2 46 -38 56 -73 21 -16 -14 -161 -86 -319 -156 -64 -28 -146
-73 -182 -99 -75 -55 -177 -153 -177 -170 0 -6 -4 -11 -9 -11 -5 0 -14 -15
-21 -32 l-12 -33 -21 56 c-12 31 -25 57 -29 58 -20 3 -27 -1 -39 -26 -8 -16
-39 -73 -70 -128 -31 -55 -65 -122 -75 -150 -32 -93 -24 -405 16 -600 14 -68
21 -116 36 -230 3 -27 9 -57 13 -65 4 -8 8 -30 10 -49 2 -33 1 -34 -17 -18
-27 25 -48 21 -73 -14 -31 -44 -32 -128 -3 -269 13 -63 24 -118 24 -122 0 -5
-42 -8 -92 -8 -143 -1 -164 -26 -154 -184 4 -55 9 -146 11 -201 2 -55 7 -143
10 -195 3 -52 8 -138 10 -190 2 -52 7 -147 11 -210 12 -199 10 -301 -8 -365
-18 -62 -24 -91 -34 -163 l-6 -42 1276 0 1276 0 -5 23 c-3 12 -7 38 -10 57 -2
19 -6 46 -9 60 -13 58 -20 95 -19 100 1 3 4 64 8 135 3 72 8 162 10 200 6 111
16 324 20 400 1 39 6 120 9 180 4 61 8 160 11 220 3 104 2 112 -21 140 -23 29
-26 30 -123 33 l-100 4 9 24 c6 14 12 37 15 52 42 208 41 296 -5 337 -18 16
-26 17 -51 8 l-31 -12 5 38 c2 21 7 43 10 48 4 6 9 30 12 54 2 24 7 60 10 79
3 19 8 55 11 80 3 25 7 59 9 75 31 261 25 399 -25 534 -27 71 -139 286 -162
311 -10 11 -18 23 -18 27 -1 13 -49 68 -54 62 -3 -3 -7 -30 -10 -60 -2 -29 -4
-56 -5 -57 -3 -12 -87 94 -118 148 -20 36 -39 67 -42 70 -4 3 -11 16 -18 30
-6 14 -25 45 -43 69 -31 42 -47 45 -54 10 -15 -77 -25 -80 -46 -14 -29 95 -74
195 -86 195 -8 0 -14 -7 -14 -15 0 -8 -4 -15 -10 -15 -5 0 -10 -6 -10 -14 0
-7 -6 -18 -12 -24 -10 -8 -13 2 -15 46 -1 30 -6 59 -10 63 -5 5 -26 -6 -47
-24z"/>
</g>
</svg>
